# xmcd
#
# Track frame offsets:
#  150
#  20327
#  40635
#  60255
#  79977
#  99232
#  117237
#  134235
#  150960
#
# Disc length: 2242 seconds
#
# Revision: 0
# Processed by: cddbd v1.4PL0 Copyright (c) Steve Scherf et al.
# Submitted via: AltoMP3_Maker 3.0
#
DISCID=6408c009
DTITLE=L.T.D. - Shine On
DYEAR=1900
DGENRE=
TTITLE0=You Gave Me Love
TTITLE1=Where Did We Go Wrong
TTITLE2=GetAway
TTITLE3=Will Love Grow
TTITLE4=Love Is What You Need
TTITLE5=Shine On
TTITLE6=Lovers Everywhere
TTITLE7=Lady Love
TTITLE8=Don'tcha Know
EXTD=
EXTT0=
EXTT1=
EXTT2=
EXTT3=
EXTT4=
EXTT5=
EXTT6=
EXTT7=
EXTT8=
PLAYORDER=
